<?xml version="1.0" standalone="no"?>
<!DOCTYPE svg PUBLIC "-//W3C//DTD SVG 20010904//EN"
 "http://www.w3.org/TR/2001/REC-SVG-20010904/DTD/svg10.dtd">
<svg version="1.0" xmlns="http://www.w3.org/2000/svg"
 width="400.000000pt" height="357.000000pt" viewBox="0 0 400.000000 357.000000"
 preserveAspectRatio="xMidYMid meet">
<metadata>
Created by potrace 1.16, written by Peter Selinger 2001-2019
</metadata>
<g transform="translate(0.000000,357.000000) scale(0.100000,-0.100000)"
fill="#000000" stroke="none">
<path d="M1270 3524 c-292 -40 -479 -133 -691 -343 -145 -145 -232 -267 -327
-464 -264 -544 -277 -1066 -36 -1455 47 -76 246 -292 269 -292 6 0 40 39 75
88 35 48 108 141 160 207 210 261 288 381 323 493 18 61 21 96 23 392 2 239 7
351 19 424 38 241 140 439 414 805 54 73 89 127 83 133 -10 10 -257 19 -312
12z"/>
<path d="M1675 3293 c-201 -274 -305 -442 -354 -574 -45 -120 -52 -187 -60
-574 -8 -363 -8 -372 -34 -450 -46 -139 -110 -240 -343 -537 -77 -97 -158
-204 -181 -237 l-43 -60 58 -13 c76 -17 327 -17 424 1 l78 14 -1 126 c0 347
120 621 390 892 102 101 154 144 271 221 80 53 200 123 267 156 l121 61 7 83
c14 175 -31 414 -110 577 -55 114 -116 200 -207 297 -61 63 -167 155 -179 153
-2 0 -49 -62 -104 -136z"/>
<path d="M2810 2360 c-270 -30 -558 -145 -843 -333 -211 -140 -431 -376 -524
-562 -103 -203 -142 -446 -109 -664 9 -57 17 -106 19 -107 2 -2 27 3 57 11 30
8 186 45 345 81 160 37 327 80 372 96 158 57 246 135 442 388 193 250 360 395
558 487 105 48 304 112 511 165 94 23 172 46 172 49 0 19 -198 191 -266 231
-215 129 -483 187 -734 158z"/>
<path d="M3665 1726 c-332 -86 -475 -140 -615 -236 -79 -54 -250 -235 -360
-380 -51 -69 -135 -166 -185 -215 -147 -148 -267 -199 -685 -294 -124 -28
-265 -62 -315 -74 l-89 -23 84 -88 c111 -115 191 -175 325 -242 166 -82 269
-106 485 -111 151 -4 190 -2 280 17 192 39 379 111 572 222 175 100 264 166
405 302 209 201 322 398 368 639 22 115 20 349 -4 455 -11 46 -21 85 -23 86
-1 2 -111 -24 -243 -58z"/>
</g>
</svg>
